<?xml version="1.0" encoding="iso-8859-1"?>
<!-- Generator: Adobe Illustrator 17.1.0, SVG Export Plug-In . SVG Version: 6.00 Build 0)  -->
<!DOCTYPE svg PUBLIC "-//W3C//DTD SVG 1.1//EN" "http://www.w3.org/Graphics/SVG/1.1/DTD/svg11.dtd">
<svg version="1.1" id="Capa_1" xmlns="http://www.w3.org/2000/svg" xmlns:xlink="http://www.w3.org/1999/xlink" x="0px" y="0px"
	 viewBox="0 0 454.906 454.906" style="enable-background:new 0 0 454.906 454.906;" xml:space="preserve">
<g>
	<path d="M420.926,34.702C379.855-6.368,314.16-10.751,268.114,24.51c-3.289,2.518-3.913,7.226-1.396,10.514
		s7.225,3.915,10.515,1.395c40.099-30.705,97.313-26.884,133.085,8.89c35.773,35.772,39.596,92.986,8.891,133.085
		c-2.518,3.289-1.894,7.996,1.396,10.514c1.36,1.042,2.964,1.546,4.554,1.546c2.255,0,4.484-1.013,5.961-2.941
		C466.378,141.467,461.996,75.772,420.926,34.702z"/>
	<path d="M406.115,87.307c-2.137,0-4.146,0.832-5.65,2.336c-1.514,1.51-2.349,3.52-2.35,5.658s0.831,4.149,2.344,5.663
		c1.511,1.511,3.52,2.343,5.656,2.343s4.146-0.832,5.657-2.343c1.512-1.513,2.344-3.523,2.343-5.662s-0.836-4.148-2.344-5.652
		C410.261,88.139,408.252,87.307,406.115,87.307z"/>
	<path d="M406.185,115.362c-4.066,1.69-6.006,6.376-4.321,10.446c1.242,3.001,4.144,4.941,7.392,4.941
		c1.054,0,2.083-0.205,3.049-0.604c1.981-0.817,3.523-2.357,4.343-4.336s0.816-4.159-0.001-6.119
		c-1.242-3.001-4.144-4.941-7.392-4.941C408.201,114.749,407.172,114.953,406.185,115.362z"/>
	<path d="M417.391,195.607c-3.464,3.46-15.422,2.508-34.339-7.413c-20.159-10.573-43.329-28.463-65.241-50.376
		c-21.913-21.913-39.805-45.083-50.377-65.242c-9.923-18.918-10.873-30.877-7.413-34.337c2.929-2.929,2.929-7.678,0-10.606
		c-2.93-2.929-7.678-2.929-10.607,0c-4.044,4.045-7.328,10.891-5.813,22.372c-14.13,20.044-21.527,44.129-21.152,68.715
		l-31.516,37.176c-0.084,0.097-0.17,0.193-0.249,0.294L12.32,366.589c-17.525,20.673-16.192,53.083,2.971,72.247
		c10.179,10.179,24.116,15.349,38.062,15.349c12.289,0,24.585-4.019,34.308-12.167l249.214-208.851
		c0.608,0.01,1.216,0.031,1.823,0.031c23.964,0,47.362-7.397,66.92-21.185c1.913,0.255,3.767,0.396,5.541,0.396
		c6.83,0,12.579-1.936,16.839-6.196c2.93-2.929,2.93-7.677,0.001-10.606S420.32,192.678,417.391,195.607z M78.025,430.521
		c-14.949,12.529-38.335,11.501-52.127-2.292c-13.778-13.777-14.736-37.078-2.137-51.94l170.126-200.683
		c7.818,19.301,19.519,37.026,34.313,51.821c1.465,1.464,3.385,2.197,5.304,2.197s3.839-0.732,5.304-2.197
		c2.929-2.929,2.929-7.678,0-10.606c-15.268-15.268-26.899-33.979-33.808-54.323l19.615-23.138
		c4.427,22.533,15.459,43.372,31.87,59.782c16.376,16.376,37.162,27.397,59.64,31.843l-23.303,19.529
		c-11.233-3.837-21.926-9.063-31.827-15.588c-3.459-2.278-8.11-1.324-10.39,2.136c-2.279,3.459-1.323,8.11,2.136,10.39
		c8.479,5.587,17.487,10.3,26.882,14.124L78.025,430.521z M267.093,188.535c-31.686-31.686-38.269-80.587-17.792-119.178
		c1.352,3.181,2.952,6.566,4.85,10.185c11.258,21.464,30.099,45.927,53.054,68.881c25.538,25.539,54.838,47.663,79.056,57.91
		C347.67,226.802,298.774,220.217,267.093,188.535z"/>
</g>
<g>
</g>
<g>
</g>
<g>
</g>
<g>
</g>
<g>
</g>
<g>
</g>
<g>
</g>
<g>
</g>
<g>
</g>
<g>
</g>
<g>
</g>
<g>
</g>
<g>
</g>
<g>
</g>
<g>
</g>
</svg>
